<svg width="56" height="56" viewBox="0 0 32 32" xmlns="http://www.w3.org/2000/svg" shape-rendering="crispEdges">
  <style>.ink{fill:#181b22}.deep{fill:#292e38}.cloth{fill:#667080}.face{fill:#f0e7d6}.red{fill:#ff5148}.light{fill:#fffaf0}</style>
  <rect class="ink" x="8" y="30" width="18" height="1"/><rect class="deep" x="11" y="29" width="12" height="1"/><rect class="ink" x="4" y="16" width="6" height="4"/><rect class="cloth" x="5" y="17" width="5" height="2"/><rect class="red" x="3" y="17" width="2" height="2"/>
  <path class="ink" d="M10 4h11v2h3v3h2v10h-2v4h-3v3H10v-3H7v-4H5V10h2V7h3z"/><path class="cloth" d="M11 6h9v2h3v3h1v7h-2v3h-2v2h-9v-2H9v-3H7v-7h2V8h2z"/><rect class="deep" x="9" y="7" width="12" height="2"/>
  <path class="ink" d="M11 10h10v1h2v7h-2v2H11v-2H9v-7h2z"/><path class="face" d="M12 11h8v1h2v5h-2v2h-8v-2h-2v-5h2z"/><path class="deep" d="M11 11h10v2h-2v1h-3v-1h-5z"/><rect class="ink" x="12" y="15" width="3" height="1"/><rect class="ink" x="18" y="15" width="3" height="1"/><rect class="deep" x="15" y="18" width="4" height="1"/>
  <path class="ink" d="M10 22h12v2h2v6h-6v-3h-4v3H8v-6h2z"/><path class="cloth" d="M11 23h10v2h1v3h-3v-2h-6v2h-3v-3h1z"/><rect class="ink" x="24" y="23" width="7" height="7"/><rect class="deep" x="25" y="22" width="5" height="2"/><rect class="red" x="26" y="25" width="3" height="3"/><rect class="light" x="27" y="25" width="1" height="1"/>
</svg>
